<?xml version="1.0" encoding="utf-8"?>
<!-- Generator: Adobe Illustrator 26.0.1, SVG Export Plug-In . SVG Version: 6.00 Build 0)  -->
<svg version="1.1" id="Layer_1" xmlns="http://www.w3.org/2000/svg" xmlns:xlink="http://www.w3.org/1999/xlink" x="0px" y="0px"
	 viewBox="0 0 1000 760" style="enable-background:new 0 0 1000 760;" xml:space="preserve">
<style type="text/css">
	.st0{fill:url(#SVGID_1_);}
	.st1{fill:url(#SVGID_00000051380517712629624160000012080166826570876345_);}
	.st2{stroke:#1D1D1B;stroke-miterlimit:10;}
	.st3{font-family:'FranklinGothic-Heavy';}
	.st4{font-size:83.9584px;}
	.st5{font-size:26.7449px;}
</style>
<radialGradient id="SVGID_1_" cx="306.4901" cy="348.6486" r="0.1741" gradientTransform="matrix(-0.5702 -0.528 0.56 -0.6047 110.428 647.103)" gradientUnits="userSpaceOnUse">
	<stop  offset="0" style="stop-color:#FFFFFF"/>
	<stop  offset="1" style="stop-color:#F9B233"/>
</radialGradient>
<path class="st0" d="M132.54,261.83c23.31-25.17,61.21-28.11,85.38-6.9c0.19,0.17,0.38,0.34,0.57,0.51s0.38,0.34,0.57,0.52
	c0.19,0.17,0.38,0.35,0.56,0.53c31.15,29.43,31.42,80.09,0.47,113.51c-30.76,33.22-80.87,36.99-112.64,8.75
	c24.17,21.21,62.08,18.27,85.38-6.9c4.72-5.09,8.48-10.72,11.3-16.63c11.29-23.76,7.22-52.21-12.08-70.08s-47.98-19.75-70.8-6.67
	C124.06,272.55,127.83,266.93,132.54,261.83z"/>
<radialGradient id="SVGID_00000152976432136597157540000017829982855388178367_" cx="306.4901" cy="348.6486" r="0.1741" gradientTransform="matrix(-0.5702 -0.528 0.56 -0.6047 110.428 647.103)" gradientUnits="userSpaceOnUse">
	<stop  offset="0" style="stop-color:#FFFFFF"/>
	<stop  offset="0.5802" style="stop-color:#000000"/>
</radialGradient>
<path style="fill:url(#SVGID_00000152976432136597157540000017829982855388178367_);" d="M105.29,263.68
	c30.76-33.22,80.87-36.99,112.64-8.75c-24.17-21.21-62.08-18.27-85.38,6.9c-4.72,5.09-8.48,10.72-11.3,16.63
	c-11.29,23.76-7.22,52.21,12.08,70.08c19.3,17.87,47.98,19.75,70.8,6.67c-2.81,5.91-6.58,11.54-11.3,16.63
	c-23.31,25.17-61.21,28.11-85.38,6.9c-0.19-0.17-0.38-0.34-0.57-0.51c-0.19-0.17-0.38-0.34-0.57-0.52s-0.38-0.35-0.56-0.53
	c-0.18-0.17-0.37-0.35-0.55-0.53C74.61,347.15,74.52,296.9,105.29,263.68z"/>
<text transform="matrix(0.9278 0 0 1 254.0125 339.8219)" class="st2 st3 st4">DevCircle Africa</text>
<text transform="matrix(1 0 0 1 258.5305 368.7075)" class="st3 st5">Creativity beyond  imagination</text>
</svg>
